<svg width="16" height="16" viewBox="0 0 16 16" fill="none" xmlns="http://www.w3.org/2000/svg">
<g clip-path="url(#clip0)">
<path fill-rule="evenodd" clip-rule="evenodd" d="M2 1C1.44772 1 1 1.44772 1 2V14C1 14.5523 1.44772 15 2 15H14C14.5523 15 15 14.5523 15 14V2C15 1.44772 14.5523 1 14 1H2ZM9.9799 6.0201C11.0734 7.11357 11.0734 8.88643 9.9799 9.9799C8.88643 11.0734 7.11357 11.0734 6.0201 9.9799C4.92663 8.88643 4.92663 7.11357 6.0201 6.0201C7.11357 4.92663 8.88643 4.92663 9.9799 6.0201ZM11.9247 10.9348C13.3636 9.01548 13.2103 6.28069 11.4648 4.53518C9.55125 2.62161 6.44875 2.62161 4.53518 4.53518C2.62161 6.44875 2.62161 9.55126 4.53518 11.4648C6.10475 13.0344 8.47423 13.3166 10.3314 12.3113L11.677 13.6569C11.8332 13.8131 12.126 13.7735 12.331 13.5685L13.0735 12.826C13.2785 12.621 13.3181 12.3281 13.1619 12.1719L11.9247 10.9348Z" fill="#666666"/>
</g>
<defs>
<clipPath id="clip0">
<rect width="16" height="16" fill="white"/>
</clipPath>
</defs>
</svg>
